<svg width="1238" height="210" viewBox="0 0 1238 210" fill="none" xmlns="http://www.w3.org/2000/svg">
<rect width="1238" height="210" fill="#F5F5F5" fill-opacity="0.5"/>
<path d="M88.0323 55.2383H83.8327C83.756 54.695 83.5994 54.2124 83.3629 53.7905C83.1264 53.3622 82.8228 52.9979 82.4521 52.6974C82.0813 52.397 81.6531 52.1669 81.1673 52.0071C80.6879 51.8473 80.1669 51.7674 79.6044 51.7674C78.5881 51.7674 77.7028 52.0199 76.9485 52.5249C76.1942 53.0234 75.6094 53.7521 75.1939 54.7109C74.7784 55.6634 74.5707 56.8203 74.5707 58.1818C74.5707 59.5817 74.7784 60.7578 75.1939 61.7102C75.6158 62.6626 76.2038 63.3817 76.9581 63.8675C77.7124 64.3533 78.5849 64.5962 79.5756 64.5962C80.1317 64.5962 80.6463 64.5227 81.1193 64.3757C81.5987 64.2287 82.0238 64.0146 82.3945 63.7333C82.7653 63.4457 83.0721 63.0973 83.315 62.6882C83.5643 62.2791 83.7369 61.8125 83.8327 61.2884L88.0323 61.3075C87.9237 62.2088 87.652 63.0781 87.2173 63.9155C86.7891 64.7464 86.2106 65.4911 85.4819 66.1495C84.7596 66.8015 83.8967 67.3192 82.8931 67.7028C81.896 68.0799 80.7678 68.2685 79.5085 68.2685C77.7571 68.2685 76.1911 67.8722 74.8104 67.0795C73.4361 66.2869 72.3494 65.1396 71.5504 63.6374C70.7578 62.1353 70.3615 60.3168 70.3615 58.1818C70.3615 56.0405 70.7642 54.2188 71.5696 52.7166C72.375 51.2145 73.468 50.0703 74.8487 49.2841C76.2294 48.4915 77.7827 48.0952 79.5085 48.0952C80.6463 48.0952 81.701 48.255 82.6726 48.5746C83.6506 48.8942 84.5167 49.3608 85.271 49.9744C86.0252 50.5817 86.6388 51.3263 87.1119 52.2085C87.5913 53.0906 87.8981 54.1005 88.0323 55.2383ZM101.662 54.011C101.585 53.2376 101.256 52.6367 100.674 52.2085C100.093 51.7802 99.3031 51.5661 98.3059 51.5661C97.6284 51.5661 97.0563 51.6619 96.5897 51.8537C96.123 52.0391 95.7651 52.2979 95.5158 52.6303C95.2729 52.9627 95.1515 53.3398 95.1515 53.7617C95.1387 54.1133 95.2122 54.4201 95.372 54.6822C95.5382 54.9442 95.7651 55.1712 96.0527 55.3629C96.3404 55.5483 96.6728 55.7113 97.0499 55.8519C97.427 55.9862 97.8297 56.1012 98.258 56.1971L100.022 56.619C100.879 56.8107 101.665 57.0664 102.381 57.386C103.097 57.7056 103.717 58.0987 104.241 58.5653C104.765 59.032 105.171 59.5817 105.459 60.2145C105.753 60.8473 105.903 61.5728 105.909 62.391C105.903 63.5927 105.596 64.6346 104.989 65.5167C104.388 66.3924 103.519 67.0732 102.381 67.5589C101.249 68.0384 99.8848 68.2781 98.2868 68.2781C96.7015 68.2781 95.3208 68.0352 94.1447 67.5494C92.975 67.0636 92.0609 66.3445 91.4025 65.392C90.7505 64.4332 90.4086 63.2475 90.3766 61.8349H94.394C94.4387 62.4933 94.6273 63.043 94.9597 63.484C95.2985 63.9187 95.7491 64.2479 96.3116 64.4716C96.8805 64.6889 97.5229 64.7976 98.2388 64.7976C98.9419 64.7976 99.5524 64.6953 100.07 64.4908C100.594 64.2862 101 64.0018 101.288 63.6374C101.575 63.2731 101.719 62.8544 101.719 62.3814C101.719 61.9403 101.588 61.5696 101.326 61.2692C101.07 60.9687 100.693 60.7131 100.195 60.5021C99.7026 60.2912 99.0985 60.0994 98.3826 59.9268L96.2445 59.3899C94.589 58.9872 93.2818 58.3576 92.323 57.5011C91.3642 56.6445 90.888 55.4908 90.8944 54.0398C90.888 52.8509 91.2044 51.8121 91.8436 50.9237C92.4892 50.0352 93.3745 49.3416 94.4995 48.843C95.6245 48.3445 96.9029 48.0952 98.3347 48.0952C99.7921 48.0952 101.064 48.3445 102.151 48.843C103.244 49.3416 104.094 50.0352 104.701 50.9237C105.308 51.8121 105.622 52.8413 105.641 54.011H101.662ZM112.853 48.3636V68H108.702V48.3636H112.853ZM116.269 68V48.3636H124.016C125.499 48.3636 126.765 48.6289 127.813 49.1594C128.868 49.6836 129.67 50.4283 130.22 51.3935C130.776 52.3523 131.054 53.4805 131.054 54.7781C131.054 56.082 130.773 57.2038 130.21 58.1435C129.648 59.0767 128.833 59.7926 127.765 60.2912C126.704 60.7898 125.419 61.0391 123.911 61.0391H118.724V57.7024H123.24C124.032 57.7024 124.691 57.5937 125.215 57.3764C125.739 57.1591 126.129 56.8331 126.385 56.3984C126.647 55.9638 126.778 55.4237 126.778 54.7781C126.778 54.1261 126.647 53.5763 126.385 53.1289C126.129 52.6815 125.736 52.3427 125.205 52.1126C124.681 51.8761 124.02 51.7578 123.221 51.7578H120.421V68H116.269ZM126.874 59.0639L131.754 68H127.171L122.396 59.0639H126.874ZM133.24 51.7866V48.3636H149.367V51.7866H143.355V68H139.252V51.7866H133.24Z" fill="#4F9E19"/>
<path d="M82.2999 92.5H81.165C81.0804 92.0774 80.9275 91.687 80.7061 91.3288C80.4888 90.9666 80.2151 90.6507 79.8851 90.381C79.5551 90.1114 79.1808 89.9021 78.7623 89.7532C78.3437 89.6043 77.8909 89.5298 77.4039 89.5298C76.6232 89.5298 75.9108 89.7331 75.2669 90.1396C74.627 90.546 74.1138 91.1437 73.7275 91.9325C73.3451 92.7173 73.1539 93.6792 73.1539 94.8182C73.1539 95.9652 73.3451 96.9311 73.7275 97.7159C74.1138 98.5007 74.627 99.0964 75.2669 99.5028C75.9108 99.9053 76.6232 100.107 77.4039 100.107C77.8909 100.107 78.3437 100.032 78.7623 99.8832C79.1808 99.7343 79.5551 99.527 79.8851 99.2614C80.2151 98.9917 80.4888 98.6758 80.7061 98.3136C80.9275 97.9513 81.0804 97.5589 81.165 97.1364H82.2999C82.1993 97.7038 82.0101 98.2331 81.7324 98.7241C81.4587 99.2111 81.1086 99.6377 80.682 100.004C80.2594 100.37 79.7724 100.656 79.2211 100.861C78.6697 101.066 78.064 101.169 77.4039 101.169C76.3656 101.169 75.444 100.909 74.639 100.39C73.8341 99.8671 73.2022 99.1306 72.7434 98.1808C72.2886 97.2309 72.0613 96.1101 72.0613 94.8182C72.0613 93.5263 72.2886 92.4054 72.7434 91.4556C73.2022 90.5058 73.8341 89.7713 74.639 89.2521C75.444 88.7289 76.3656 88.4673 77.4039 88.4673C78.064 88.4673 78.6697 88.57 79.2211 88.7752C79.7724 88.9764 80.2594 89.2622 80.682 89.6325C81.1086 89.9987 81.4587 90.4253 81.7324 90.9123C82.0101 91.3993 82.1993 91.9285 82.2999 92.5ZM88.3323 101.193C87.5314 101.193 86.8231 100.99 86.2073 100.583C85.5956 100.177 85.1166 99.6155 84.7705 98.8991C84.4244 98.1787 84.2513 97.3477 84.2513 96.4059C84.2513 95.4561 84.4244 94.621 84.7705 93.9006C85.1166 93.1761 85.5956 92.6127 86.2073 92.2102C86.8231 91.8037 87.5314 91.6005 88.3323 91.6005C89.1332 91.6005 89.8395 91.8037 90.4513 92.2102C91.063 92.6167 91.5419 93.1802 91.8881 93.9006C92.2382 94.621 92.4133 95.4561 92.4133 96.4059C92.4133 97.3477 92.2402 98.1787 91.8941 98.8991C91.548 99.6155 91.067 100.177 90.4513 100.583C89.8395 100.99 89.1332 101.193 88.3323 101.193ZM88.3323 100.209C88.9762 100.209 89.5216 100.036 89.9683 99.69C90.415 99.3439 90.7531 98.883 90.9825 98.3075C91.2159 97.732 91.3327 97.0981 91.3327 96.4059C91.3327 95.7137 91.2159 95.0778 90.9825 94.4982C90.7531 93.9187 90.415 93.4538 89.9683 93.1037C89.5216 92.7536 88.9762 92.5785 88.3323 92.5785C87.6924 92.5785 87.147 92.7536 86.6963 93.1037C86.2496 93.4538 85.9095 93.9187 85.676 94.4982C85.4466 95.0778 85.3319 95.7137 85.3319 96.4059C85.3319 97.0981 85.4466 97.732 85.676 98.3075C85.9095 98.883 86.2496 99.3439 86.6963 99.69C87.143 100.036 87.6884 100.209 88.3323 100.209ZM94.7722 101V91.7273H95.8166V93.152H95.9132C96.0983 92.6731 96.4062 92.2968 96.8368 92.0231C97.2715 91.7454 97.7927 91.6065 98.4004 91.6065C99.0403 91.6065 99.5655 91.7575 99.976 92.0593C100.391 92.3571 100.7 92.7676 100.906 93.2908H100.984C101.193 92.7757 101.534 92.3672 102.004 92.0653C102.479 91.7595 103.055 91.6065 103.731 91.6065C104.592 91.6065 105.272 91.8782 105.771 92.4215C106.271 92.9608 106.52 93.7496 106.52 94.788V101H105.445V94.788C105.445 94.0555 105.258 93.5062 104.884 93.1399C104.51 92.7737 104.017 92.5906 103.405 92.5906C102.697 92.5906 102.151 92.8079 101.769 93.2425C101.387 93.6772 101.195 94.2286 101.195 94.8967V101H100.097V94.6914C100.097 94.0636 99.9217 93.5565 99.5716 93.1701C99.2214 92.7837 98.7284 92.5906 98.0925 92.5906C97.6659 92.5906 97.2815 92.6952 96.9395 92.9045C96.6014 93.1138 96.3337 93.4055 96.1365 93.7798C95.9434 94.1501 95.8468 94.5767 95.8468 95.0597V101H94.7722ZM109.365 104.477V91.7273H110.409V93.4961H110.536C110.665 93.2184 110.842 92.9347 111.067 92.6449C111.293 92.3511 111.591 92.1036 111.961 91.9023C112.335 91.7011 112.806 91.6005 113.373 91.6005C114.138 91.6005 114.806 91.8017 115.378 92.2042C115.953 92.6026 116.4 93.162 116.718 93.8825C117.04 94.5988 117.201 95.4339 117.201 96.3878C117.201 97.3456 117.04 98.1848 116.718 98.9052C116.4 99.6256 115.953 100.187 115.378 100.589C114.806 100.992 114.142 101.193 113.386 101.193C112.826 101.193 112.357 101.093 111.979 100.891C111.605 100.69 111.301 100.443 111.067 100.149C110.838 99.851 110.661 99.5612 110.536 99.2795H110.44V104.477H109.365ZM110.427 96.3697C110.427 97.1183 110.538 97.7823 110.759 98.3619C110.985 98.9374 111.307 99.3902 111.725 99.7202C112.148 100.046 112.659 100.209 113.259 100.209C113.875 100.209 114.394 100.04 114.816 99.7021C115.243 99.36 115.567 98.8991 115.788 98.3196C116.014 97.7401 116.126 97.0901 116.126 96.3697C116.126 95.6573 116.016 95.0154 115.794 94.4439C115.577 93.8724 115.255 93.4196 114.828 93.0856C114.402 92.7475 113.879 92.5785 113.259 92.5785C112.655 92.5785 112.142 92.7415 111.719 93.0675C111.297 93.3894 110.975 93.8362 110.753 94.4077C110.536 94.9751 110.427 95.6291 110.427 96.3697ZM125.45 97.4563V91.7273H126.525V101H125.45V99.4606H125.366C125.149 99.9355 124.804 100.332 124.334 100.65C123.863 100.964 123.287 101.121 122.607 101.121C122.015 101.121 121.49 100.992 121.031 100.734C120.573 100.473 120.212 100.09 119.951 99.5874C119.689 99.0843 119.558 98.4665 119.558 97.734V91.7273H120.633V97.6676C120.633 98.392 120.846 98.9756 121.273 99.4183C121.699 99.857 122.247 100.076 122.915 100.076C123.333 100.076 123.736 99.9757 124.122 99.7745C124.509 99.5733 124.827 99.2795 125.076 98.8931C125.326 98.5027 125.45 98.0238 125.45 97.4563ZM133.022 91.7273V92.663H128.597V91.7273H133.022ZM129.98 89.5057H131.06V98.5792C131.06 98.9656 131.127 99.2694 131.259 99.4908C131.392 99.7081 131.565 99.863 131.779 99.9556C131.992 100.044 132.219 100.088 132.461 100.088C132.602 100.088 132.722 100.08 132.823 100.064C132.924 100.044 133.012 100.024 133.089 100.004L133.318 100.976C133.213 101.016 133.085 101.052 132.932 101.085C132.779 101.121 132.59 101.139 132.364 101.139C131.97 101.139 131.589 101.052 131.223 100.879C130.861 100.706 130.563 100.449 130.33 100.107C130.096 99.7644 129.98 99.3398 129.98 98.8327V89.5057ZM139.112 101.193C138.247 101.193 137.498 100.992 136.866 100.589C136.234 100.183 135.745 99.6216 135.399 98.9052C135.057 98.1848 134.886 97.3557 134.886 96.418C134.886 95.4843 135.057 94.6552 135.399 93.9308C135.745 93.2023 136.222 92.6328 136.83 92.2223C137.442 91.8078 138.148 91.6005 138.949 91.6005C139.452 91.6005 139.937 91.6931 140.404 91.8782C140.871 92.0593 141.289 92.339 141.66 92.7173C142.034 93.0916 142.33 93.5645 142.547 94.136C142.764 94.7035 142.873 95.3756 142.873 96.1523V96.6836H135.629V95.7358H141.774C141.774 95.1402 141.653 94.6049 141.412 94.13C141.175 93.651 140.843 93.2727 140.416 92.995C139.993 92.7173 139.504 92.5785 138.949 92.5785C138.361 92.5785 137.844 92.7354 137.397 93.0494C136.951 93.3633 136.601 93.7778 136.347 94.293C136.098 94.8081 135.971 95.3716 135.967 95.9833V96.5508C135.967 97.2873 136.093 97.9312 136.347 98.4826C136.605 99.0299 136.969 99.4545 137.44 99.7564C137.911 100.058 138.468 100.209 139.112 100.209C139.551 100.209 139.935 100.141 140.265 100.004C140.599 99.8671 140.879 99.6839 141.104 99.4545C141.334 99.2211 141.507 98.9656 141.623 98.6879L142.644 99.0199C142.503 99.4103 142.271 99.7705 141.949 100.1C141.631 100.431 141.233 100.696 140.754 100.897C140.279 101.095 139.732 101.193 139.112 101.193ZM145.241 101V91.7273H146.285V93.152H146.364C146.549 92.6851 146.871 92.3088 147.33 92.0231C147.793 91.7333 148.316 91.5884 148.899 91.5884C148.988 91.5884 149.086 91.5904 149.195 91.5945C149.304 91.5985 149.394 91.6025 149.467 91.6065V92.6992C149.419 92.6912 149.334 92.6791 149.213 92.663C149.093 92.6469 148.962 92.6388 148.821 92.6388C148.338 92.6388 147.907 92.7415 147.529 92.9467C147.155 93.148 146.859 93.4277 146.642 93.7859C146.424 94.1441 146.316 94.5526 146.316 95.0114V101H145.241ZM163.018 91.7273C162.95 91.0391 162.646 90.4917 162.107 90.0852C161.567 89.6787 160.889 89.4755 160.072 89.4755C159.497 89.4755 158.99 89.5741 158.551 89.7713C158.116 89.9685 157.774 90.2422 157.525 90.5923C157.279 90.9384 157.156 91.3329 157.156 91.7756C157.156 92.1016 157.227 92.3873 157.368 92.6328C157.508 92.8783 157.698 93.0896 157.935 93.2667C158.177 93.4397 158.442 93.5887 158.732 93.7134C159.026 93.8382 159.322 93.9428 159.619 94.0273L160.923 94.4016C161.318 94.5103 161.712 94.6491 162.107 94.8182C162.501 94.9872 162.861 95.2005 163.187 95.4581C163.517 95.7116 163.781 96.0236 163.978 96.3938C164.179 96.7601 164.28 97.2008 164.28 97.7159C164.28 98.3759 164.109 98.9696 163.767 99.4968C163.425 100.024 162.934 100.443 162.294 100.752C161.654 101.058 160.887 101.211 159.994 101.211C159.153 101.211 158.422 101.072 157.802 100.795C157.182 100.513 156.696 100.125 156.341 99.6296C155.987 99.1346 155.788 98.5611 155.744 97.9091H156.903C156.943 98.3961 157.104 98.8086 157.386 99.1467C157.667 99.4847 158.034 99.7423 158.484 99.9194C158.935 100.092 159.438 100.179 159.994 100.179C160.609 100.179 161.157 100.076 161.636 99.8711C162.119 99.6618 162.497 99.372 162.771 99.0018C163.048 98.6275 163.187 98.1928 163.187 97.6978C163.187 97.2792 163.079 96.9291 162.861 96.6474C162.644 96.3616 162.34 96.1222 161.95 95.929C161.563 95.7358 161.115 95.5647 160.603 95.4158L159.124 94.9812C158.154 94.6914 157.402 94.291 156.867 93.7798C156.331 93.2687 156.064 92.6167 156.064 91.8239C156.064 91.1598 156.241 90.5762 156.595 90.0732C156.953 89.5661 157.436 89.1716 158.044 88.8899C158.656 88.6042 159.342 88.4613 160.102 88.4613C160.871 88.4613 161.551 88.6022 162.143 88.8839C162.734 89.1656 163.203 89.554 163.549 90.049C163.9 90.54 164.087 91.0994 164.111 91.7273H163.018ZM170.522 101.193C169.657 101.193 168.908 100.992 168.276 100.589C167.645 100.183 167.156 99.6216 166.809 98.9052C166.467 98.1848 166.296 97.3557 166.296 96.418C166.296 95.4843 166.467 94.6552 166.809 93.9308C167.156 93.2023 167.632 92.6328 168.24 92.2223C168.852 91.8078 169.558 91.6005 170.359 91.6005C170.862 91.6005 171.347 91.6931 171.814 91.8782C172.281 92.0593 172.699 92.339 173.07 92.7173C173.444 93.0916 173.74 93.5645 173.957 94.136C174.174 94.7035 174.283 95.3756 174.283 96.1523V96.6836H167.039V95.7358H173.184C173.184 95.1402 173.064 94.6049 172.822 94.13C172.585 93.651 172.253 93.2727 171.826 92.995C171.403 92.7173 170.915 92.5785 170.359 92.5785C169.772 92.5785 169.254 92.7354 168.808 93.0494C168.361 93.3633 168.011 93.7778 167.757 94.293C167.508 94.8081 167.381 95.3716 167.377 95.9833V96.5508C167.377 97.2873 167.504 97.9312 167.757 98.4826C168.015 99.0299 168.379 99.4545 168.85 99.7564C169.321 100.058 169.878 100.209 170.522 100.209C170.961 100.209 171.345 100.141 171.675 100.004C172.009 99.8671 172.289 99.6839 172.514 99.4545C172.744 99.2211 172.917 98.9656 173.033 98.6879L174.054 99.0199C173.913 99.4103 173.681 99.7705 173.359 100.1C173.042 100.431 172.643 100.696 172.164 100.897C171.689 101.095 171.142 101.193 170.522 101.193ZM180.273 101.193C179.444 101.193 178.722 100.986 178.106 100.571C177.494 100.157 177.019 99.5894 176.681 98.869C176.343 98.1486 176.174 97.3275 176.174 96.4059C176.174 95.4762 176.345 94.6491 176.687 93.9247C177.033 93.2003 177.512 92.6328 178.124 92.2223C178.736 91.8078 179.446 91.6005 180.255 91.6005C180.875 91.6005 181.436 91.7212 181.939 91.9627C182.443 92.2002 182.857 92.5362 183.183 92.9709C183.513 93.4015 183.72 93.9046 183.805 94.4801H182.718C182.606 93.9569 182.334 93.5102 181.903 93.1399C181.477 92.7656 180.933 92.5785 180.273 92.5785C179.682 92.5785 179.158 92.7395 178.704 93.0614C178.249 93.3794 177.893 93.8241 177.635 94.3956C177.382 94.9631 177.255 95.6211 177.255 96.3697C177.255 97.1223 177.38 97.7884 177.629 98.3679C177.879 98.9434 178.229 99.3942 178.68 99.7202C179.134 100.046 179.666 100.209 180.273 100.209C180.684 100.209 181.058 100.133 181.396 99.9798C181.738 99.8228 182.024 99.6014 182.253 99.3157C182.487 99.0299 182.644 98.6899 182.724 98.2955H183.811C183.73 98.8549 183.531 99.3539 183.213 99.7926C182.899 100.227 182.491 100.569 181.988 100.819C181.489 101.068 180.917 101.193 180.273 101.193ZM192.006 97.4563V91.7273H193.081V101H192.006V99.4606H191.922C191.704 99.9355 191.36 100.332 190.889 100.65C190.418 100.964 189.843 101.121 189.163 101.121C188.571 101.121 188.046 100.992 187.587 100.734C187.128 100.473 186.768 100.09 186.506 99.5874C186.245 99.0843 186.114 98.4665 186.114 97.734V91.7273H187.189V97.6676C187.189 98.392 187.402 98.9756 187.828 99.4183C188.255 99.857 188.802 100.076 189.471 100.076C189.889 100.076 190.292 99.9757 190.678 99.7745C191.064 99.5733 191.382 99.2795 191.632 98.8931C191.881 98.5027 192.006 98.0238 192.006 97.4563ZM195.926 101V91.7273H196.97V93.152H197.048C197.234 92.6851 197.555 92.3088 198.014 92.0231C198.477 91.7333 199 91.5884 199.584 91.5884C199.672 91.5884 199.771 91.5904 199.88 91.5945C199.988 91.5985 200.079 91.6025 200.151 91.6065V92.6992C200.103 92.6912 200.019 92.6791 199.898 92.663C199.777 92.6469 199.646 92.6388 199.505 92.6388C199.022 92.6388 198.592 92.7415 198.214 92.9467C197.839 93.148 197.543 93.4277 197.326 93.7859C197.109 94.1441 197 94.5526 197 95.0114V101H195.926ZM201.997 101V91.7273H203.078V101H201.997ZM202.547 90.1335C202.325 90.1335 202.136 90.0591 201.979 89.9102C201.822 89.7572 201.744 89.5741 201.744 89.3608C201.744 89.1475 201.822 88.9664 201.979 88.8175C202.136 88.6645 202.325 88.5881 202.547 88.5881C202.768 88.5881 202.957 88.6645 203.114 88.8175C203.271 88.9664 203.349 89.1475 203.349 89.3608C203.349 89.5741 203.271 89.7572 203.114 89.9102C202.957 90.0591 202.768 90.1335 202.547 90.1335ZM209.572 91.7273V92.663H205.147V91.7273H209.572ZM206.529 89.5057H207.61V98.5792C207.61 98.9656 207.676 99.2694 207.809 99.4908C207.942 99.7081 208.115 99.863 208.328 99.9556C208.542 100.044 208.769 100.088 209.011 100.088C209.151 100.088 209.272 100.08 209.373 100.064C209.473 100.044 209.562 100.024 209.638 100.004L209.868 100.976C209.763 101.016 209.634 101.052 209.481 101.085C209.329 101.121 209.139 101.139 208.914 101.139C208.52 101.139 208.139 101.052 207.773 100.879C207.411 100.706 207.113 100.449 206.88 100.107C206.646 99.7644 206.529 99.3398 206.529 98.8327V89.5057ZM212.761 104.477C212.548 104.477 212.348 104.457 212.163 104.417C211.978 104.377 211.831 104.332 211.723 104.284L212.012 103.336C212.379 103.449 212.705 103.489 212.99 103.457C213.276 103.429 213.53 103.3 213.751 103.071C213.972 102.845 214.17 102.499 214.343 102.032L214.681 101.091L211.27 91.7273H212.435L215.188 99.5813H215.272L218.025 91.7273H219.19L215.266 102.467C215.101 102.914 214.898 103.286 214.657 103.584C214.415 103.886 214.135 104.109 213.817 104.254C213.504 104.403 213.151 104.477 212.761 104.477ZM227.426 88.6364V101H226.297V88.6364H227.426ZM231.565 95.2045V101H230.49V91.7273H231.534V93.1822H231.631C231.848 92.7073 232.186 92.3269 232.645 92.0412C233.108 91.7514 233.679 91.6065 234.36 91.6065C234.983 91.6065 235.531 91.7373 236.002 91.9989C236.477 92.2565 236.845 92.6368 237.106 93.1399C237.372 93.643 237.505 94.2608 237.505 94.9933V101H236.43V95.0597C236.43 94.299 236.217 93.6973 235.79 93.2546C235.368 92.8119 234.8 92.5906 234.088 92.5906C233.601 92.5906 233.168 92.6952 232.79 92.9045C232.412 93.1138 232.112 93.4156 231.891 93.81C231.673 94.2004 231.565 94.6652 231.565 95.2045ZM243.957 101.193C243.128 101.193 242.405 100.986 241.79 100.571C241.178 100.157 240.703 99.5894 240.365 98.869C240.027 98.1486 239.858 97.3275 239.858 96.4059C239.858 95.4762 240.029 94.6491 240.371 93.9247C240.717 93.2003 241.196 92.6328 241.808 92.2223C242.419 91.8078 243.13 91.6005 243.939 91.6005C244.559 91.6005 245.12 91.7212 245.623 91.9627C246.126 92.2002 246.541 92.5362 246.867 92.9709C247.197 93.4015 247.404 93.9046 247.488 94.4801H246.402C246.289 93.9569 246.017 93.5102 245.587 93.1399C245.16 92.7656 244.617 92.5785 243.957 92.5785C243.365 92.5785 242.842 92.7395 242.387 93.0614C241.932 93.3794 241.576 93.8241 241.319 94.3956C241.065 94.9631 240.938 95.6211 240.938 96.3697C240.938 97.1223 241.063 97.7884 241.313 98.3679C241.562 98.9434 241.912 99.3942 242.363 99.7202C242.818 100.046 243.349 100.209 243.957 100.209C244.367 100.209 244.742 100.133 245.08 99.9798C245.422 99.8228 245.708 99.6014 245.937 99.3157C246.17 99.0299 246.327 98.6899 246.408 98.2955H247.494C247.414 98.8549 247.215 99.3539 246.897 99.7926C246.583 100.227 246.174 100.569 245.671 100.819C245.172 101.068 244.601 101.193 243.957 101.193ZM249.81 101V91.7273H250.89V101H249.81ZM250.359 90.1335C250.138 90.1335 249.949 90.0591 249.792 89.9102C249.635 89.7572 249.556 89.5741 249.556 89.3608C249.556 89.1475 249.635 88.9664 249.792 88.8175C249.949 88.6645 250.138 88.5881 250.359 88.5881C250.58 88.5881 250.77 88.6645 250.926 88.8175C251.083 88.9664 251.162 89.1475 251.162 89.3608C251.162 89.5741 251.083 89.7572 250.926 89.9102C250.77 90.0591 250.58 90.1335 250.359 90.1335ZM257.071 101.193C256.31 101.193 255.644 100.992 255.072 100.589C254.501 100.187 254.054 99.6256 253.732 98.9052C253.414 98.1848 253.255 97.3456 253.255 96.3878C253.255 95.4339 253.414 94.5988 253.732 93.8825C254.054 93.162 254.503 92.6026 255.078 92.2042C255.654 91.8017 256.324 91.6005 257.089 91.6005C257.652 91.6005 258.121 91.7011 258.495 91.9023C258.87 92.0996 259.169 92.3451 259.395 92.6388C259.62 92.9326 259.795 93.2184 259.92 93.4961H260.017V88.6364H261.097V101H260.047V99.2795H259.92C259.795 99.5612 259.618 99.851 259.389 100.149C259.159 100.443 258.855 100.69 258.477 100.891C258.103 101.093 257.634 101.193 257.071 101.193ZM257.197 100.209C257.797 100.209 258.308 100.046 258.731 99.7202C259.153 99.3902 259.475 98.9374 259.697 98.3619C259.922 97.7823 260.035 97.1183 260.035 96.3697C260.035 95.6291 259.924 94.9751 259.703 94.4077C259.481 93.8362 259.159 93.3894 258.737 93.0675C258.314 92.7415 257.801 92.5785 257.197 92.5785C256.578 92.5785 256.054 92.7475 255.628 93.0856C255.205 93.4196 254.883 93.8724 254.662 94.4439C254.445 95.0154 254.336 95.6573 254.336 96.3697C254.336 97.0901 254.447 97.7401 254.668 98.3196C254.889 98.8991 255.211 99.36 255.634 99.7021C256.06 100.04 256.582 100.209 257.197 100.209ZM267.907 101.193C267.042 101.193 266.293 100.992 265.661 100.589C265.029 100.183 264.54 99.6216 264.194 98.9052C263.852 98.1848 263.681 97.3557 263.681 96.418C263.681 95.4843 263.852 94.6552 264.194 93.9308C264.54 93.2023 265.017 92.6328 265.625 92.2223C266.237 91.8078 266.943 91.6005 267.744 91.6005C268.247 91.6005 268.732 91.6931 269.199 91.8782C269.666 92.0593 270.084 92.339 270.454 92.7173C270.829 93.0916 271.125 93.5645 271.342 94.136C271.559 94.7035 271.668 95.3756 271.668 96.1523V96.6836H264.424V95.7358H270.569C270.569 95.1402 270.448 94.6049 270.207 94.13C269.969 93.651 269.637 93.2727 269.211 92.995C268.788 92.7173 268.299 92.5785 267.744 92.5785C267.156 92.5785 266.639 92.7354 266.192 93.0494C265.746 93.3633 265.396 93.7778 265.142 94.293C264.892 94.8081 264.766 95.3716 264.762 95.9833V96.5508C264.762 97.2873 264.888 97.9312 265.142 98.4826C265.4 99.0299 265.764 99.4545 266.235 99.7564C266.706 100.058 267.263 100.209 267.907 100.209C268.346 100.209 268.73 100.141 269.06 100.004C269.394 99.8671 269.674 99.6839 269.899 99.4545C270.128 99.2211 270.302 98.9656 270.418 98.6879L271.438 99.0199C271.298 99.4103 271.066 99.7705 270.744 100.1C270.426 100.431 270.028 100.696 269.549 100.897C269.074 101.095 268.527 101.193 267.907 101.193ZM275.11 95.2045V101H274.036V91.7273H275.08V93.1822H275.177C275.394 92.7073 275.732 92.3269 276.191 92.0412C276.654 91.7514 277.225 91.6065 277.906 91.6065C278.529 91.6065 279.077 91.7373 279.548 91.9989C280.022 92.2565 280.391 92.6368 280.652 93.1399C280.918 93.643 281.051 94.2608 281.051 94.9933V101H279.976V95.0597C279.976 94.299 279.763 93.6973 279.336 93.2546C278.914 92.8119 278.346 92.5906 277.634 92.5906C277.147 92.5906 276.714 92.6952 276.336 92.9045C275.958 93.1138 275.658 93.4156 275.436 93.81C275.219 94.2004 275.11 94.6652 275.11 95.2045ZM287.533 91.7273V92.663H283.108V91.7273H287.533ZM284.49 89.5057H285.571V98.5792C285.571 98.9656 285.637 99.2694 285.77 99.4908C285.903 99.7081 286.076 99.863 286.289 99.9556C286.503 100.044 286.73 100.088 286.972 100.088C287.112 100.088 287.233 100.08 287.334 100.064C287.434 100.044 287.523 100.024 287.599 100.004L287.829 100.976C287.724 101.016 287.595 101.052 287.442 101.085C287.289 101.121 287.1 101.139 286.875 101.139C286.48 101.139 286.1 101.052 285.734 100.879C285.372 100.706 285.074 100.449 284.84 100.107C284.607 99.7644 284.49 99.3398 284.49 98.8327V89.5057ZM294.978 101V88.6364H298.968C299.846 88.6364 300.578 88.7953 301.166 89.1133C301.757 89.4272 302.202 89.8639 302.5 90.4233C302.802 90.9787 302.953 91.6166 302.953 92.337C302.953 93.0574 302.802 93.6933 302.5 94.2447C302.202 94.796 301.759 95.2267 301.172 95.5366C300.584 95.8465 299.856 96.0014 298.987 96.0014H295.588V94.9691H298.956C299.6 94.9691 300.136 94.8625 300.562 94.6491C300.993 94.4358 301.313 94.132 301.522 93.7376C301.735 93.3432 301.842 92.8763 301.842 92.337C301.842 91.7977 301.735 91.3268 301.522 90.9244C301.309 90.5179 300.987 90.204 300.556 89.9826C300.129 89.7612 299.59 89.6506 298.938 89.6506H296.107V101H294.978ZM300.429 95.4219L303.472 101H302.168L299.156 95.4219H300.429ZM309.129 101.193C308.263 101.193 307.515 100.992 306.883 100.589C306.251 100.183 305.762 99.6216 305.416 98.9052C305.074 98.1848 304.903 97.3557 304.903 96.418C304.903 95.4843 305.074 94.6552 305.416 93.9308C305.762 93.2023 306.239 92.6328 306.847 92.2223C307.458 91.8078 308.165 91.6005 308.966 91.6005C309.469 91.6005 309.954 91.6931 310.42 91.8782C310.887 92.0593 311.306 92.339 311.676 92.7173C312.05 93.0916 312.346 93.5645 312.564 94.136C312.781 94.7035 312.89 95.3756 312.89 96.1523V96.6836H305.645V95.7358H311.791C311.791 95.1402 311.67 94.6049 311.429 94.13C311.191 93.651 310.859 93.2727 310.433 92.995C310.01 92.7173 309.521 92.5785 308.966 92.5785C308.378 92.5785 307.861 92.7354 307.414 93.0494C306.967 93.3633 306.617 93.7778 306.364 94.293C306.114 94.8081 305.987 95.3716 305.983 95.9833V96.5508C305.983 97.2873 306.11 97.9312 306.364 98.4826C306.621 99.0299 306.985 99.4545 307.456 99.7564C307.927 100.058 308.485 100.209 309.129 100.209C309.567 100.209 309.952 100.141 310.282 100.004C310.616 99.8671 310.895 99.6839 311.121 99.4545C311.35 99.2211 311.523 98.9656 311.64 98.6879L312.66 99.0199C312.519 99.4103 312.288 99.7705 311.966 100.1C311.648 100.431 311.25 100.696 310.771 100.897C310.296 101.095 309.748 101.193 309.129 101.193ZM321.488 93.7617L320.504 94.0394C320.407 93.7617 320.27 93.5102 320.093 93.2848C319.916 93.0594 319.685 92.8803 319.399 92.7475C319.117 92.6147 318.767 92.5483 318.348 92.5483C317.721 92.5483 317.205 92.6972 316.803 92.995C316.401 93.2929 316.199 93.6772 316.199 94.1481C316.199 94.5465 316.336 94.8705 316.61 95.12C316.888 95.3655 317.314 95.5607 317.89 95.7056L319.29 96.0497C320.067 96.2389 320.649 96.5387 321.035 96.9492C321.425 97.3597 321.62 97.8749 321.62 98.4947C321.62 99.0179 321.476 99.4827 321.186 99.8892C320.896 100.296 320.492 100.616 319.972 100.849C319.457 101.078 318.86 101.193 318.179 101.193C317.274 101.193 316.527 100.99 315.94 100.583C315.352 100.173 314.976 99.5813 314.811 98.8086L315.843 98.555C315.976 99.1064 316.236 99.523 316.622 99.8047C317.012 100.086 317.525 100.227 318.161 100.227C318.874 100.227 319.443 100.068 319.87 99.7504C320.296 99.4284 320.51 99.0259 320.51 98.543C320.51 98.1687 320.385 97.8548 320.135 97.6012C319.886 97.3436 319.508 97.1545 319 97.0337L317.485 96.6715C316.68 96.4783 316.085 96.1725 315.698 95.7539C315.312 95.3353 315.119 94.8162 315.119 94.1964C315.119 93.6853 315.258 93.2365 315.535 92.8501C315.813 92.4598 316.195 92.1539 316.682 91.9325C317.169 91.7112 317.725 91.6005 318.348 91.6005C319.198 91.6005 319.876 91.7937 320.383 92.18C320.894 92.5624 321.262 93.0896 321.488 93.7617ZM323.973 104.477V91.7273H325.018V93.4961H325.145C325.273 93.2184 325.45 92.9347 325.676 92.6449C325.901 92.3511 326.199 92.1036 326.569 91.9023C326.944 91.7011 327.414 91.6005 327.982 91.6005C328.747 91.6005 329.415 91.8017 329.986 92.2042C330.562 92.6026 331.008 93.162 331.326 93.8825C331.648 94.5988 331.809 95.4339 331.809 96.3878C331.809 97.3456 331.648 98.1848 331.326 98.9052C331.008 99.6256 330.562 100.187 329.986 100.589C329.415 100.992 328.751 101.193 327.994 101.193C327.435 101.193 326.966 101.093 326.587 100.891C326.213 100.69 325.909 100.443 325.676 100.149C325.446 99.851 325.269 99.5612 325.145 99.2795H325.048V104.477H323.973ZM325.036 96.3697C325.036 97.1183 325.147 97.7823 325.368 98.3619C325.593 98.9374 325.915 99.3902 326.334 99.7202C326.756 100.046 327.268 100.209 327.867 100.209C328.483 100.209 329.002 100.04 329.425 99.7021C329.851 99.36 330.175 98.8991 330.397 98.3196C330.622 97.7401 330.735 97.0901 330.735 96.3697C330.735 95.6573 330.624 95.0154 330.403 94.4439C330.185 93.8724 329.863 93.4196 329.437 93.0856C329.01 92.7475 328.487 92.5785 327.867 92.5785C327.263 92.5785 326.75 92.7415 326.328 93.0675C325.905 93.3894 325.583 93.8362 325.362 94.4077C325.145 94.9751 325.036 95.6291 325.036 96.3697ZM337.771 101.193C336.97 101.193 336.262 100.99 335.646 100.583C335.034 100.177 334.555 99.6155 334.209 98.8991C333.863 98.1787 333.69 97.3477 333.69 96.4059C333.69 95.4561 333.863 94.621 334.209 93.9006C334.555 93.1761 335.034 92.6127 335.646 92.2102C336.262 91.8037 336.97 91.6005 337.771 91.6005C338.572 91.6005 339.278 91.8037 339.89 92.2102C340.501 92.6167 340.98 93.1802 341.327 93.9006C341.677 94.621 341.852 95.4561 341.852 96.4059C341.852 97.3477 341.679 98.1787 341.333 98.8991C340.986 99.6155 340.506 100.177 339.89 100.583C339.278 100.99 338.572 101.193 337.771 101.193ZM337.771 100.209C338.415 100.209 338.96 100.036 339.407 99.69C339.854 99.3439 340.192 98.883 340.421 98.3075C340.654 97.732 340.771 97.0981 340.771 96.4059C340.771 95.7137 340.654 95.0778 340.421 94.4982C340.192 93.9187 339.854 93.4538 339.407 93.1037C338.96 92.7536 338.415 92.5785 337.771 92.5785C337.131 92.5785 336.586 92.7536 336.135 93.1037C335.688 93.4538 335.348 93.9187 335.115 94.4982C334.885 95.0778 334.77 95.7137 334.77 96.4059C334.77 97.0981 334.885 97.732 335.115 98.3075C335.348 98.883 335.688 99.3439 336.135 99.69C336.581 100.036 337.127 100.209 337.771 100.209ZM345.285 95.2045V101H344.211V91.7273H345.255V93.1822H345.352C345.569 92.7073 345.907 92.3269 346.366 92.0412C346.829 91.7514 347.4 91.6065 348.08 91.6065C348.704 91.6065 349.252 91.7373 349.722 91.9989C350.197 92.2565 350.566 92.6368 350.827 93.1399C351.093 93.643 351.226 94.2608 351.226 94.9933V101H350.151V95.0597C350.151 94.299 349.938 93.6973 349.511 93.2546C349.089 92.8119 348.521 92.5906 347.809 92.5906C347.322 92.5906 346.889 92.6952 346.511 92.9045C346.132 93.1138 345.833 93.4156 345.611 93.81C345.394 94.2004 345.285 94.6652 345.285 95.2045ZM360.286 93.7617L359.301 94.0394C359.205 93.7617 359.068 93.5102 358.891 93.2848C358.714 93.0594 358.482 92.8803 358.197 92.7475C357.915 92.6147 357.565 92.5483 357.146 92.5483C356.518 92.5483 356.003 92.6972 355.601 92.995C355.198 93.2929 354.997 93.6772 354.997 94.1481C354.997 94.5465 355.134 94.8705 355.408 95.12C355.685 95.3655 356.112 95.5607 356.688 95.7056L358.088 96.0497C358.865 96.2389 359.446 96.5387 359.833 96.9492C360.223 97.3597 360.418 97.8749 360.418 98.4947C360.418 99.0179 360.273 99.4827 359.984 99.8892C359.694 100.296 359.289 100.616 358.77 100.849C358.255 101.078 357.657 101.193 356.977 101.193C356.072 101.193 355.325 100.99 354.738 100.583C354.15 100.173 353.774 99.5813 353.609 98.8086L354.641 98.555C354.774 99.1064 355.033 99.523 355.42 99.8047C355.81 100.086 356.323 100.227 356.959 100.227C357.672 100.227 358.241 100.068 358.668 99.7504C359.094 99.4284 359.308 99.0259 359.308 98.543C359.308 98.1687 359.183 97.8548 358.933 97.6012C358.684 97.3436 358.305 97.1545 357.798 97.0337L356.283 96.6715C355.478 96.4783 354.882 96.1725 354.496 95.7539C354.11 95.3353 353.917 94.8162 353.917 94.1964C353.917 93.6853 354.055 93.2365 354.333 92.8501C354.611 92.4598 354.993 92.1539 355.48 91.9325C355.967 91.7112 356.522 91.6005 357.146 91.6005C357.996 91.6005 358.674 91.7937 359.181 92.18C359.692 92.5624 360.06 93.0896 360.286 93.7617ZM366.52 101.193C365.655 101.193 364.906 100.992 364.274 100.589C363.643 100.183 363.154 99.6216 362.807 98.9052C362.465 98.1848 362.294 97.3557 362.294 96.418C362.294 95.4843 362.465 94.6552 362.807 93.9308C363.154 93.2023 363.63 92.6328 364.238 92.2223C364.85 91.8078 365.556 91.6005 366.357 91.6005C366.86 91.6005 367.345 91.6931 367.812 91.8782C368.279 92.0593 368.697 92.339 369.068 92.7173C369.442 93.0916 369.738 93.5645 369.955 94.136C370.172 94.7035 370.281 95.3756 370.281 96.1523V96.6836H363.037V95.7358H369.182C369.182 95.1402 369.062 94.6049 368.82 94.13C368.583 93.651 368.251 93.2727 367.824 92.995C367.402 92.7173 366.913 92.5785 366.357 92.5785C365.77 92.5785 365.252 92.7354 364.806 93.0494C364.359 93.3633 364.009 93.7778 363.755 94.293C363.506 94.8081 363.379 95.3716 363.375 95.9833V96.5508C363.375 97.2873 363.502 97.9312 363.755 98.4826C364.013 99.0299 364.377 99.4545 364.848 99.7564C365.319 100.058 365.876 100.209 366.52 100.209C366.959 100.209 367.343 100.141 367.673 100.004C368.007 99.8671 368.287 99.6839 368.512 99.4545C368.742 99.2211 368.915 98.9656 369.032 98.6879L370.052 99.0199C369.911 99.4103 369.679 99.7705 369.358 100.1C369.04 100.431 368.641 100.696 368.162 100.897C367.687 101.095 367.14 101.193 366.52 101.193ZM376.905 89.6506V88.6364H385.87V89.6506H381.952V101H380.823V89.6506H376.905ZM390.592 101.193C389.727 101.193 388.979 100.992 388.347 100.589C387.715 100.183 387.226 99.6216 386.88 98.9052C386.538 98.1848 386.367 97.3557 386.367 96.418C386.367 95.4843 386.538 94.6552 386.88 93.9308C387.226 93.2023 387.703 92.6328 388.31 92.2223C388.922 91.8078 389.629 91.6005 390.429 91.6005C390.932 91.6005 391.417 91.6931 391.884 91.8782C392.351 92.0593 392.77 92.339 393.14 92.7173C393.514 93.0916 393.81 93.5645 394.027 94.136C394.245 94.7035 394.353 95.3756 394.353 96.1523V96.6836H387.109V95.7358H393.255C393.255 95.1402 393.134 94.6049 392.892 94.13C392.655 93.651 392.323 93.2727 391.896 92.995C391.474 92.7173 390.985 92.5785 390.429 92.5785C389.842 92.5785 389.325 92.7354 388.878 93.0494C388.431 93.3633 388.081 93.7778 387.828 94.293C387.578 94.8081 387.451 95.3716 387.447 95.9833V96.5508C387.447 97.2873 387.574 97.9312 387.828 98.4826C388.085 99.0299 388.449 99.4545 388.92 99.7564C389.391 100.058 389.948 100.209 390.592 100.209C391.031 100.209 391.415 100.141 391.745 100.004C392.08 99.8671 392.359 99.6839 392.585 99.4545C392.814 99.2211 392.987 98.9656 393.104 98.6879L394.124 99.0199C393.983 99.4103 393.752 99.7705 393.43 100.1C393.112 100.431 392.713 100.696 392.234 100.897C391.76 101.095 391.212 101.193 390.592 101.193ZM399.311 101.211C398.752 101.211 398.241 101.103 397.778 100.885C397.315 100.664 396.947 100.346 396.673 99.9315C396.399 99.5129 396.263 99.0058 396.263 98.4102C396.263 97.9513 396.349 97.565 396.522 97.2511C396.695 96.9371 396.941 96.6796 397.259 96.4783C397.577 96.2771 397.953 96.1181 398.388 96.0014C398.822 95.8847 399.301 95.7942 399.824 95.7298C400.344 95.6654 400.782 95.609 401.14 95.5607C401.503 95.5124 401.778 95.436 401.968 95.3313C402.157 95.2267 402.251 95.0576 402.251 94.8242V94.6069C402.251 93.975 402.062 93.478 401.684 93.1158C401.309 92.7495 400.77 92.5664 400.066 92.5664C399.398 92.5664 398.852 92.7133 398.43 93.0071C398.011 93.3009 397.718 93.647 397.548 94.0455L396.528 93.6772C396.738 93.1701 397.027 92.7656 397.398 92.4638C397.768 92.1579 398.182 91.9386 398.641 91.8058C399.1 91.6689 399.565 91.6005 400.036 91.6005C400.39 91.6005 400.758 91.6468 401.14 91.7393C401.527 91.8319 401.885 91.9929 402.215 92.2223C402.545 92.4477 402.813 92.7636 403.018 93.1701C403.223 93.5726 403.326 94.0837 403.326 94.7035V101H402.251V99.533H402.185C402.056 99.8067 401.865 100.072 401.611 100.33C401.358 100.587 401.04 100.799 400.657 100.964C400.275 101.129 399.826 101.211 399.311 101.211ZM399.456 100.227C400.028 100.227 400.523 100.1 400.941 99.8469C401.36 99.5934 401.682 99.2573 401.907 98.8388C402.137 98.4162 402.251 97.9513 402.251 97.4442V96.104C402.171 96.1805 402.036 96.2489 401.847 96.3093C401.662 96.3697 401.446 96.424 401.201 96.4723C400.959 96.5166 400.718 96.5548 400.476 96.587C400.235 96.6192 400.018 96.6474 399.824 96.6715C399.301 96.7359 398.854 96.8365 398.484 96.9734C398.114 97.1102 397.83 97.2994 397.633 97.5408C397.436 97.7783 397.337 98.0842 397.337 98.4585C397.337 99.0219 397.538 99.4586 397.941 99.7685C398.343 100.074 398.848 100.227 399.456 100.227ZM406.184 101V91.7273H407.229V93.152H407.325C407.51 92.6731 407.818 92.2968 408.249 92.0231C408.684 91.7454 409.205 91.6065 409.812 91.6065C410.452 91.6065 410.978 91.7575 411.388 92.0593C411.803 92.3571 412.113 92.7676 412.318 93.2908H412.396C412.606 92.7757 412.946 92.3672 413.417 92.0653C413.891 91.7595 414.467 91.6065 415.143 91.6065C416.004 91.6065 416.685 91.8782 417.184 92.4215C417.683 92.9608 417.932 93.7496 417.932 94.788V101H416.858V94.788C416.858 94.0555 416.67 93.5062 416.296 93.1399C415.922 92.7737 415.429 92.5906 414.817 92.5906C414.109 92.5906 413.563 92.8079 413.181 93.2425C412.799 93.6772 412.608 94.2286 412.608 94.8967V101H411.509V94.6914C411.509 94.0636 411.334 93.5565 410.984 93.1701C410.634 92.7837 410.141 92.5906 409.505 92.5906C409.078 92.5906 408.694 92.6952 408.352 92.9045C408.013 93.1138 407.746 93.4055 407.549 93.7798C407.355 94.1501 407.259 94.5767 407.259 95.0597V101H406.184Z" fill="#0045A4"/>
<line x1="70.9746" y1="125.5" x2="505.361" y2="125.5" stroke="#7D7D7D"/>
<path d="M72.2507 160H69.5717L75.5913 143.273H78.5071L84.5266 160H81.8477L77.1186 146.311H76.9879L72.2507 160ZM72.6999 153.45H81.3903V155.573H72.6999V153.45ZM89.1883 152.551V160H86.7462V147.455H89.0903V149.496H89.2455C89.5341 148.832 89.986 148.299 90.6013 147.896C91.222 147.493 92.0034 147.291 92.9454 147.291C93.8003 147.291 94.549 147.471 95.1915 147.83C95.834 148.184 96.3322 148.712 96.6862 149.415C97.0401 150.117 97.2171 150.986 97.2171 152.02V160H94.7749V152.314C94.7749 151.405 94.5381 150.694 94.0644 150.183C93.5906 149.665 92.94 149.407 92.1123 149.407C91.546 149.407 91.0423 149.529 90.6013 149.774C90.1657 150.019 89.8199 150.379 89.564 150.852C89.3135 151.321 89.1883 151.887 89.1883 152.551ZM105.752 164.966C104.756 164.966 103.898 164.835 103.179 164.574C102.466 164.313 101.883 163.967 101.432 163.537C100.98 163.106 100.642 162.635 100.419 162.124L102.518 161.258C102.665 161.497 102.861 161.751 103.106 162.017C103.356 162.29 103.694 162.521 104.119 162.712C104.549 162.902 105.102 162.998 105.777 162.998C106.702 162.998 107.467 162.772 108.072 162.32C108.676 161.873 108.978 161.16 108.978 160.18V157.713H108.823C108.676 157.98 108.464 158.277 108.186 158.603C107.914 158.93 107.538 159.213 107.059 159.453C106.58 159.692 105.956 159.812 105.189 159.812C104.198 159.812 103.305 159.581 102.51 159.118C101.72 158.65 101.094 157.961 100.631 157.051C100.174 156.137 99.945 155.012 99.945 153.678C99.945 152.344 100.171 151.201 100.623 150.248C101.08 149.295 101.707 148.565 102.502 148.059C103.296 147.547 104.198 147.291 105.205 147.291C105.984 147.291 106.613 147.422 107.092 147.683C107.571 147.939 107.944 148.239 108.211 148.582C108.483 148.925 108.693 149.227 108.84 149.488H109.019V147.455H111.412V160.278C111.412 161.356 111.162 162.241 110.661 162.932C110.16 163.624 109.482 164.136 108.627 164.468C107.778 164.8 106.819 164.966 105.752 164.966ZM105.728 157.787C106.43 157.787 107.024 157.623 107.508 157.297C107.998 156.964 108.369 156.491 108.619 155.875C108.875 155.255 109.003 154.511 109.003 153.646C109.003 152.802 108.878 152.058 108.627 151.416C108.377 150.773 108.009 150.272 107.525 149.913C107.04 149.548 106.441 149.366 105.728 149.366C104.993 149.366 104.38 149.556 103.89 149.938C103.4 150.313 103.03 150.825 102.779 151.473C102.534 152.121 102.412 152.845 102.412 153.646C102.412 154.468 102.537 155.189 102.787 155.81C103.038 156.431 103.408 156.915 103.898 157.264C104.394 157.612 105.004 157.787 105.728 157.787ZM116.934 155.745L116.917 152.763H117.342L122.341 147.455H125.265L119.564 153.499H119.18L116.934 155.745ZM114.688 160V143.273H117.13V160H114.688ZM122.61 160L118.118 154.038L119.801 152.331L125.608 160H122.61ZM131.141 160.278C130.346 160.278 129.628 160.131 128.985 159.837C128.342 159.537 127.833 159.104 127.458 158.538C127.087 157.972 126.902 157.277 126.902 156.455C126.902 155.747 127.038 155.165 127.311 154.707C127.583 154.25 127.95 153.888 128.413 153.621C128.876 153.354 129.393 153.153 129.965 153.017C130.537 152.881 131.119 152.777 131.713 152.706C132.464 152.619 133.074 152.548 133.543 152.494C134.011 152.434 134.351 152.339 134.563 152.208C134.776 152.077 134.882 151.865 134.882 151.571V151.514C134.882 150.801 134.681 150.248 134.278 149.856C133.88 149.464 133.287 149.268 132.497 149.268C131.675 149.268 131.027 149.45 130.553 149.815C130.085 150.174 129.761 150.575 129.581 151.016L127.286 150.493C127.558 149.731 127.956 149.115 128.479 148.647C129.007 148.173 129.614 147.83 130.3 147.618C130.986 147.4 131.708 147.291 132.464 147.291C132.965 147.291 133.496 147.351 134.057 147.471C134.623 147.585 135.152 147.798 135.642 148.108C136.137 148.418 136.543 148.862 136.859 149.439C137.174 150.011 137.332 150.754 137.332 151.669V160H134.947V158.285H134.849C134.691 158.601 134.455 158.911 134.139 159.216C133.823 159.521 133.417 159.774 132.922 159.975C132.426 160.177 131.833 160.278 131.141 160.278ZM131.672 158.317C132.347 158.317 132.925 158.184 133.404 157.917C133.888 157.65 134.256 157.302 134.506 156.872C134.762 156.436 134.89 155.971 134.89 155.475V153.858C134.803 153.945 134.634 154.027 134.384 154.103C134.139 154.174 133.858 154.236 133.543 154.291C133.227 154.34 132.919 154.386 132.62 154.43C132.32 154.468 132.07 154.5 131.868 154.528C131.394 154.588 130.962 154.688 130.57 154.83C130.183 154.971 129.873 155.176 129.638 155.442C129.41 155.704 129.295 156.052 129.295 156.488C129.295 157.092 129.519 157.55 129.965 157.86C130.412 158.165 130.981 158.317 131.672 158.317ZM149.986 150.517L147.773 150.909C147.68 150.626 147.533 150.357 147.331 150.101C147.135 149.845 146.869 149.635 146.531 149.472C146.193 149.309 145.771 149.227 145.265 149.227C144.574 149.227 143.996 149.382 143.534 149.692C143.071 149.997 142.839 150.392 142.839 150.877C142.839 151.296 142.994 151.634 143.305 151.89C143.615 152.145 144.116 152.355 144.808 152.518L146.801 152.976C147.955 153.243 148.815 153.654 149.382 154.209C149.948 154.765 150.231 155.486 150.231 156.374C150.231 157.125 150.013 157.795 149.578 158.383C149.147 158.965 148.546 159.423 147.773 159.755C147.005 160.087 146.115 160.253 145.102 160.253C143.697 160.253 142.551 159.954 141.663 159.355C140.776 158.75 140.231 157.893 140.03 156.782L142.39 156.423C142.537 157.038 142.839 157.503 143.297 157.819C143.754 158.13 144.35 158.285 145.085 158.285C145.886 158.285 146.526 158.119 147.005 157.787C147.484 157.449 147.724 157.038 147.724 156.553C147.724 156.161 147.577 155.832 147.282 155.565C146.994 155.298 146.55 155.097 145.951 154.961L143.828 154.495C142.657 154.228 141.791 153.804 141.23 153.221C140.675 152.638 140.397 151.9 140.397 151.007C140.397 150.267 140.604 149.619 141.018 149.064C141.432 148.508 142.003 148.075 142.733 147.765C143.463 147.449 144.299 147.291 145.241 147.291C146.596 147.291 147.664 147.585 148.442 148.173C149.221 148.756 149.736 149.537 149.986 150.517ZM156.567 160.278C155.772 160.278 155.053 160.131 154.411 159.837C153.768 159.537 153.259 159.104 152.883 158.538C152.513 157.972 152.328 157.277 152.328 156.455C152.328 155.747 152.464 155.165 152.736 154.707C153.009 154.25 153.376 153.888 153.839 153.621C154.302 153.354 154.819 153.153 155.391 153.017C155.963 152.881 156.545 152.777 157.139 152.706C157.89 152.619 158.5 152.548 158.968 152.494C159.437 152.434 159.777 152.339 159.989 152.208C160.202 152.077 160.308 151.865 160.308 151.571V151.514C160.308 150.801 160.106 150.248 159.703 149.856C159.306 149.464 158.712 149.268 157.923 149.268C157.101 149.268 156.453 149.45 155.979 149.815C155.511 150.174 155.187 150.575 155.007 151.016L152.712 150.493C152.984 149.731 153.382 149.115 153.904 148.647C154.433 148.173 155.04 147.83 155.726 147.618C156.412 147.4 157.133 147.291 157.89 147.291C158.391 147.291 158.922 147.351 159.483 147.471C160.049 147.585 160.577 147.798 161.067 148.108C161.563 148.418 161.969 148.862 162.284 149.439C162.6 150.011 162.758 150.754 162.758 151.669V160H160.373V158.285H160.275C160.117 158.601 159.88 158.911 159.565 159.216C159.249 159.521 158.843 159.774 158.348 159.975C157.852 160.177 157.259 160.278 156.567 160.278ZM157.098 158.317C157.773 158.317 158.35 158.184 158.829 157.917C159.314 157.65 159.682 157.302 159.932 156.872C160.188 156.436 160.316 155.971 160.316 155.475V153.858C160.229 153.945 160.06 154.027 159.81 154.103C159.565 154.174 159.284 154.236 158.968 154.291C158.652 154.34 158.345 154.386 158.045 154.43C157.746 154.468 157.495 154.5 157.294 154.528C156.82 154.588 156.387 154.688 155.995 154.83C155.609 154.971 155.298 155.176 155.064 155.442C154.835 155.704 154.721 156.052 154.721 156.488C154.721 157.092 154.944 157.55 155.391 157.86C155.837 158.165 156.406 158.317 157.098 158.317ZM172.294 160V143.273H178.256C179.557 143.273 180.636 143.51 181.491 143.983C182.345 144.457 182.985 145.105 183.41 145.927C183.835 146.744 184.047 147.664 184.047 148.688C184.047 149.717 183.832 150.643 183.402 151.465C182.977 152.282 182.334 152.93 181.474 153.409C180.619 153.882 179.544 154.119 178.248 154.119H174.148V151.979H178.019C178.841 151.979 179.508 151.838 180.02 151.555C180.532 151.266 180.908 150.874 181.147 150.379C181.387 149.883 181.507 149.319 181.507 148.688C181.507 148.056 181.387 147.495 181.147 147.005C180.908 146.515 180.529 146.131 180.012 145.854C179.5 145.576 178.825 145.437 177.987 145.437H174.818V160H172.294ZM194.757 154.797V147.455H197.207V160H194.806V157.827H194.675C194.386 158.497 193.924 159.055 193.287 159.502C192.655 159.943 191.868 160.163 190.926 160.163C190.12 160.163 189.407 159.986 188.786 159.632C188.171 159.273 187.686 158.742 187.332 158.04C186.984 157.337 186.81 156.469 186.81 155.434V147.455H189.252V155.14C189.252 155.995 189.489 156.676 189.962 157.182C190.436 157.689 191.051 157.942 191.808 157.942C192.266 157.942 192.72 157.827 193.172 157.599C193.63 157.37 194.008 157.024 194.308 156.561C194.612 156.099 194.762 155.511 194.757 154.797ZM200.488 160V147.455H202.849V149.447H202.979C203.208 148.772 203.611 148.241 204.188 147.855C204.771 147.463 205.43 147.267 206.165 147.267C206.317 147.267 206.497 147.272 206.704 147.283C206.916 147.294 207.082 147.308 207.202 147.324V149.66C207.104 149.633 206.93 149.603 206.679 149.57C206.429 149.532 206.178 149.513 205.928 149.513C205.351 149.513 204.836 149.635 204.384 149.88C203.938 150.12 203.584 150.455 203.323 150.885C203.061 151.31 202.93 151.794 202.93 152.339V160H200.488ZM212.854 160.278C212.059 160.278 211.34 160.131 210.698 159.837C210.055 159.537 209.546 159.104 209.171 158.538C208.8 157.972 208.615 157.277 208.615 156.455C208.615 155.747 208.751 155.165 209.024 154.707C209.296 154.25 209.663 153.888 210.126 153.621C210.589 153.354 211.106 153.153 211.678 153.017C212.25 152.881 212.832 152.777 213.426 152.706C214.177 152.619 214.787 152.548 215.255 152.494C215.724 152.434 216.064 152.339 216.276 152.208C216.489 152.077 216.595 151.865 216.595 151.571V151.514C216.595 150.801 216.393 150.248 215.991 149.856C215.593 149.464 214.999 149.268 214.21 149.268C213.388 149.268 212.74 149.45 212.266 149.815C211.798 150.174 211.474 150.575 211.294 151.016L208.999 150.493C209.271 149.731 209.669 149.115 210.191 148.647C210.72 148.173 211.327 147.83 212.013 147.618C212.699 147.4 213.42 147.291 214.177 147.291C214.678 147.291 215.209 147.351 215.77 147.471C216.336 147.585 216.864 147.798 217.354 148.108C217.85 148.418 218.256 148.862 218.571 149.439C218.887 150.011 219.045 150.754 219.045 151.669V160H216.66V158.285H216.562C216.404 158.601 216.167 158.911 215.852 159.216C215.536 159.521 215.13 159.774 214.635 159.975C214.139 160.177 213.546 160.278 212.854 160.278ZM213.385 158.317C214.06 158.317 214.637 158.184 215.117 157.917C215.601 157.65 215.969 157.302 216.219 156.872C216.475 156.436 216.603 155.971 216.603 155.475V153.858C216.516 153.945 216.347 154.027 216.097 154.103C215.852 154.174 215.571 154.236 215.255 154.291C214.94 154.34 214.632 154.386 214.332 154.43C214.033 154.468 213.783 154.5 213.581 154.528C213.107 154.588 212.674 154.688 212.282 154.83C211.896 154.971 211.585 155.176 211.351 155.442C211.123 155.704 211.008 156.052 211.008 156.488C211.008 157.092 211.232 157.55 211.678 157.86C212.124 158.165 212.694 158.317 213.385 158.317ZM231.105 143.273V160H228.581V143.273H231.105Z" fill="#4F9E19"/>
</svg>
